<svg width="1000" height="1001" viewBox="0 0 1000 1001" fill="none" xmlns="http://www.w3.org/2000/svg">
<rect y="0.660645" width="1000" height="1000" fill="#181818"/>
<path fill-rule="evenodd" clip-rule="evenodd" d="M500.612 844.807C425.881 844.807 354.21 808.507 301.367 743.894C248.524 679.28 218.837 591.646 218.837 500.269C218.837 408.892 248.524 321.257 301.367 256.644C354.21 192.03 425.881 155.731 500.612 155.731V254.677C491.383 263.196 482.594 272.53 474.322 282.64C427.093 340.359 400.56 418.642 400.56 500.269C400.56 581.895 427.093 660.179 474.322 717.897C482.594 728.007 491.383 737.341 500.612 745.861V844.807ZM652.398 662.12V808.042C597.306 808.042 544.074 785.98 500.612 745.861L500.612 500.269L500.612 254.677C544.074 214.557 597.306 192.496 652.398 192.496V338.418C650.707 340.332 649.044 342.29 647.408 344.289C613.575 385.658 594.567 441.765 594.567 500.269C594.567 558.772 613.575 614.88 647.408 656.248C649.044 658.248 650.707 660.206 652.398 662.12ZM652.398 662.12V500.269L652.398 338.418C685.683 300.728 729.442 279.681 774.977 279.681V500.269V720.857C729.442 720.857 685.683 699.809 652.398 662.12Z" fill="white"/>
</svg>
